<svg width="30" height="25" viewBox="0 0 30 25" fill="none" xmlns="http://www.w3.org/2000/svg">
<path d="M16.6675 9.62917C16.0337 9.62917 15.4375 9.26758 15.1151 8.68902L12.704 4.4061L10.2966 8.68902C9.97038 9.27159 9.37417 9.63319 8.74046 9.63319C8.57172 9.63319 8.40298 9.60909 8.24174 9.55685L3.10456 7.9819V15.1335C3.10456 15.7241 3.47954 16.2384 4.012 16.379L12.119 18.5526C12.5015 18.653 12.9027 18.653 13.2814 18.5526L21.3959 16.379C21.9284 16.2344 22.3033 15.7201 22.3033 15.1335V7.9819L17.1662 9.55284C17.0049 9.60507 16.8362 9.62917 16.6675 9.62917ZM24.6395 5.12126L22.7083 0.991012C22.5921 0.741912 22.3408 0.597273 22.0821 0.633433L12.704 1.91509L16.1425 8.02609C16.285 8.27921 16.57 8.39974 16.8362 8.31939L24.257 6.04936C24.6282 5.93284 24.8082 5.49089 24.6395 5.12126ZM2.69959 0.991012L0.768458 5.12126C0.595969 5.49089 0.779707 5.93284 1.14718 6.04534L8.56797 8.31537C8.8342 8.39573 9.11918 8.27519 9.26167 8.02207L12.704 1.91509L3.32205 0.633433C3.06331 0.601291 2.81583 0.741912 2.69959 0.991012Z" fill="#9C9C9C"/>
<path d="M11.394 16.0252L8.73971 13.1812C8.58025 13.0104 8.58025 12.7334 8.73971 12.5625L9.31719 11.9437C9.47665 11.7728 9.73522 11.7728 9.89468 11.9437L11.6827 13.8595L15.5125 9.75607C15.6719 9.58522 15.9305 9.58522 16.09 9.75607L16.6674 10.3748C16.8269 10.5457 16.8269 10.8227 16.6674 10.9936L11.9715 16.0252C11.812 16.1961 11.5534 16.1961 11.394 16.0252Z" fill="white"/>
</svg>
