<svg width="90" height="50" viewBox="0 0 90 50" fill="none" xmlns="http://www.w3.org/2000/svg">
<g clip-path="url(#clip0_85_13)">
<rect width="90" height="50" rx="9" fill="#2271B1"/>
<path d="M90 10C88.0302 10 86.0796 10.388 84.2597 11.1418C82.4399 11.8956 80.7863 13.0005 79.3934 14.3934C78.0005 15.7863 76.8956 17.4399 76.1418 19.2597C75.388 21.0796 75 23.0302 75 25C75 26.9698 75.388 28.9204 76.1418 30.7403C76.8956 32.5601 78.0005 34.2137 79.3934 35.6066C80.7863 36.9995 82.4399 38.1044 84.2597 38.8582C86.0796 39.612 88.0302 40 90 40L90 25L90 10Z" fill="white"/>
<path d="M-1.78873e-07 40C1.96983 40 3.92037 39.612 5.74025 38.8582C7.56014 38.1044 9.21372 36.9995 10.6066 35.6066C11.9995 34.2137 13.1044 32.5601 13.8582 30.7403C14.612 28.9204 15 26.9698 15 25C15 23.0302 14.612 21.0796 13.8582 19.2597C13.1044 17.4399 11.9995 15.7863 10.6066 14.3934C9.21372 13.0005 7.56013 11.8956 5.74025 11.1418C3.92037 10.388 1.96983 10 -1.13247e-06 10L0 25L-1.78873e-07 40Z" fill="white"/>
<path d="M30.642 30H28.392L32.4886 18.3636H35.0909L39.1932 30H36.9432L33.8352 20.75H33.7443L30.642 30ZM30.7159 25.4375H36.8523V27.1307H30.7159V25.4375ZM40.6122 30V28.4773L44.652 24.517C45.0384 24.1269 45.3603 23.7803 45.6179 23.4773C45.8755 23.1742 46.0687 22.8807 46.1974 22.5966C46.3262 22.3125 46.3906 22.0095 46.3906 21.6875C46.3906 21.3201 46.3073 21.0057 46.1406 20.7443C45.974 20.4792 45.7448 20.2746 45.4531 20.1307C45.1615 19.9867 44.83 19.9148 44.4588 19.9148C44.0762 19.9148 43.741 19.9943 43.4531 20.1534C43.1652 20.3087 42.9418 20.5303 42.7827 20.8182C42.6274 21.1061 42.5497 21.4489 42.5497 21.8466H40.544C40.544 21.108 40.7126 20.4659 41.0497 19.9205C41.3868 19.375 41.8509 18.9527 42.4418 18.6534C43.0365 18.3542 43.7183 18.2045 44.4872 18.2045C45.2675 18.2045 45.9531 18.3504 46.544 18.642C47.1349 18.9337 47.5933 19.3333 47.919 19.8409C48.2486 20.3485 48.4134 20.928 48.4134 21.5795C48.4134 22.0152 48.33 22.4432 48.1634 22.8636C47.9967 23.2841 47.7031 23.75 47.2827 24.2614C46.866 24.7727 46.2808 25.392 45.527 26.1193L43.5213 28.1591V28.2386H48.5895V30H40.6122ZM50.4474 30V28.6875L56.4134 20.1307H50.4134V18.3636H59.027V19.6761L53.0668 28.233H59.0611V30H50.4474ZM62.277 30.125C61.9323 30.125 61.6368 30.0038 61.3906 29.7614C61.1444 29.5189 61.0232 29.2235 61.027 28.875C61.0232 28.5341 61.1444 28.2424 61.3906 28C61.6368 27.7576 61.9323 27.6364 62.277 27.6364C62.6103 27.6364 62.9001 27.7576 63.1463 28C63.3963 28.2424 63.5232 28.5341 63.527 28.875C63.5232 29.1061 63.4626 29.3163 63.3452 29.5057C63.2315 29.6951 63.08 29.8466 62.8906 29.9602C62.705 30.0701 62.5005 30.125 62.277 30.125ZM66.9176 30.125C66.5729 30.125 66.2775 30.0038 66.0312 29.7614C65.785 29.5189 65.6638 29.2235 65.6676 28.875C65.6638 28.5341 65.785 28.2424 66.0312 28C66.2775 27.7576 66.5729 27.6364 66.9176 27.6364C67.2509 27.6364 67.5407 27.7576 67.7869 28C68.0369 28.2424 68.1638 28.5341 68.1676 28.875C68.1638 29.1061 68.1032 29.3163 67.9858 29.5057C67.8722 29.6951 67.7206 29.8466 67.5312 29.9602C67.3456 30.0701 67.1411 30.125 66.9176 30.125ZM71.5582 30.125C71.2135 30.125 70.9181 30.0038 70.6719 29.7614C70.4257 29.5189 70.3045 29.2235 70.3082 28.875C70.3045 28.5341 70.4257 28.2424 70.6719 28C70.9181 27.7576 71.2135 27.6364 71.5582 27.6364C71.8916 27.6364 72.1813 27.7576 72.4276 28C72.6776 28.2424 72.8045 28.5341 72.8082 28.875C72.8045 29.1061 72.7438 29.3163 72.6264 29.5057C72.5128 29.6951 72.3613 29.8466 72.1719 29.9602C71.9863 30.0701 71.7817 30.125 71.5582 30.125Z" fill="white"/>
<line x1="21.5" x2="21.5" y2="55" stroke="white" stroke-dasharray="2 2"/>
<path d="M4.48864 29.3125V21.4489H6.27273V29.3125H4.48864ZM1.44886 26.2727V24.4886H9.3125V26.2727H1.44886Z" fill="#2271B1"/>
</g>
<defs>
<clipPath id="clip0_85_13">
<rect width="90" height="50" rx="9" fill="white"/>
</clipPath>
</defs>
</svg>
