<svg width="76" height="76" viewBox="0 0 76 76" fill="none" xmlns="http://www.w3.org/2000/svg">
<g filter="url(#filter0_d_301_52)">
<circle cx="38" cy="38" r="30" fill="#F1F3F9"/>
<path d="M61.2193 56.862C57.8335 60.8468 53.4552 63.6318 48.6381 64.8649C43.8209 66.0981 38.7813 65.7239 34.1565 63.7897C29.5316 61.8555 25.5293 58.4481 22.6556 53.9986C19.782 49.549 18.166 44.257 18.0121 38.7919C17.8582 33.3267 19.1733 27.9338 21.791 23.2951C24.4088 18.6565 28.2116 14.9804 32.7186 12.7317C37.2257 10.4831 42.2345 9.76283 47.1117 10.6621C51.9889 11.5614 56.5154 14.0398 60.1189 17.7839L55.0462 23.754C52.5106 21.1193 49.3253 19.3753 45.8933 18.7425C42.4613 18.1097 38.9367 18.6165 35.7652 20.1989C32.5937 21.7812 29.9177 24.368 28.0756 27.6321C26.2336 30.8963 25.3082 34.6912 25.4165 38.5369C25.5248 42.3826 26.6619 46.1065 28.6841 49.2376C30.7062 52.3687 33.5225 54.7663 36.777 56.1274C40.0314 57.4884 43.5777 57.7518 46.9674 56.884C50.3572 56.0163 53.4381 54.0565 55.8206 51.2525L61.2193 56.862Z" fill="#FF9900"/>
<path d="M61.2193 56.862C57.8335 60.8468 53.4552 63.6318 48.6381 64.8649C43.8209 66.0981 38.7813 65.7239 34.1565 63.7897C29.5316 61.8555 25.5293 58.4481 22.6556 53.9986C19.782 49.549 18.166 44.257 18.0121 38.7919C17.8582 33.3267 19.1733 27.9338 21.791 23.2951C24.4088 18.6565 28.2116 14.9804 32.7186 12.7317C37.2257 10.4831 42.2345 9.76283 47.1117 10.6621C51.9889 11.5614 56.5154 14.0398 60.1189 17.7839L55.0462 23.754C52.5106 21.1193 49.3253 19.3753 45.8933 18.7425C42.4613 18.1097 38.9367 18.6165 35.7652 20.1989C32.5937 21.7812 29.9177 24.368 28.0756 27.6321C26.2336 30.8963 25.3082 34.6912 25.4165 38.5369C25.5248 42.3826 26.6619 46.1065 28.6841 49.2376C30.7062 52.3687 33.5225 54.7663 36.777 56.1274C40.0314 57.4884 43.5777 57.7518 46.9674 56.884C50.3572 56.0163 53.4381 54.0565 55.8206 51.2525L61.2193 56.862Z" fill="#05FF00" fill-opacity="0.2"/>
<path d="M15.3223 18.3829C18.8186 14.5166 23.2732 11.8836 28.1227 10.8168C32.9723 9.75013 37.9989 10.2976 42.5671 12.3901C47.1352 14.4825 51.0397 18.0259 53.7867 22.5723C56.5338 27.1186 58 32.4636 58 37.9314C58 43.3992 56.5338 48.7443 53.7867 53.2906C51.0397 57.8369 47.1352 61.3803 42.5671 63.4728C37.9989 65.5652 32.9722 66.1127 28.1227 65.0459C23.2732 63.9792 18.8186 61.3462 15.3223 57.4799L20.5605 51.6873C23.0208 54.408 26.1554 56.2608 29.5679 57.0114C32.9805 57.762 36.5176 57.3768 39.7322 55.9044C42.9467 54.432 45.6942 51.9385 47.6272 48.7394C49.5603 45.5402 50.592 41.779 50.592 37.9314C50.592 34.0838 49.5603 30.3226 47.6273 27.1235C45.6942 23.9243 42.9467 21.4308 39.7322 19.9584C36.5177 18.486 32.9805 18.1008 29.568 18.8514C26.1554 19.602 23.0208 21.4548 20.5606 24.1755L15.3223 18.3829Z" fill="#61FF00"/>
<path d="M15.3223 18.3829C18.8186 14.5166 23.2732 11.8836 28.1227 10.8168C32.9723 9.75013 37.9989 10.2976 42.5671 12.3901C47.1352 14.4825 51.0397 18.0259 53.7867 22.5723C56.5338 27.1186 58 32.4636 58 37.9314C58 43.3992 56.5338 48.7443 53.7867 53.2906C51.0397 57.8369 47.1352 61.3803 42.5671 63.4728C37.9989 65.5652 32.9722 66.1127 28.1227 65.0459C23.2732 63.9792 18.8186 61.3462 15.3223 57.4799L20.5605 51.6873C23.0208 54.408 26.1554 56.2608 29.5679 57.0114C32.9805 57.762 36.5176 57.3768 39.7322 55.9044C42.9467 54.432 45.6942 51.9385 47.6272 48.7394C49.5603 45.5402 50.592 41.779 50.592 37.9314C50.592 34.0838 49.5603 30.3226 47.6273 27.1235C45.6942 23.9243 42.9467 21.4308 39.7322 19.9584C36.5177 18.486 32.9805 18.1008 29.568 18.8514C26.1554 19.602 23.0208 21.4548 20.5606 24.1755L15.3223 18.3829Z" fill="#2400FF" fill-opacity="0.5"/>
<ellipse cx="38" cy="37.9314" rx="2.12747" ry="12.6181" fill="#47007E"/>
</g>
<defs>
<filter id="filter0_d_301_52" x="0" y="0" width="76" height="76" filterUnits="userSpaceOnUse" color-interpolation-filters="sRGB">
<feFlood flood-opacity="0" result="BackgroundImageFix"/>
<feColorMatrix in="SourceAlpha" type="matrix" values="0 0 0 0 0 0 0 0 0 0 0 0 0 0 0 0 0 0 127 0" result="hardAlpha"/>
<feOffset/>
<feGaussianBlur stdDeviation="4"/>
<feComposite in2="hardAlpha" operator="out"/>
<feColorMatrix type="matrix" values="0 0 0 0 0 0 0 0 0 0 0 0 0 0 0 0 0 0 0.25 0"/>
<feBlend mode="normal" in2="BackgroundImageFix" result="effect1_dropShadow_301_52"/>
<feBlend mode="normal" in="SourceGraphic" in2="effect1_dropShadow_301_52" result="shape"/>
</filter>
</defs>
</svg>
