<svg width="24" height="24" viewBox="0 0 19 17" fill="none" xmlns="http://www.w3.org/2000/svg">
<path d="M1.5894 15.852C1.5894 16.4869 2.1024 17 2.73739 17H16.5133C17.1482 17 17.6613 16.4869 17.6613 15.852V5.52006H1.5894V15.852ZM7.32934 9.02974C7.32934 8.79297 7.52307 8.96403 7.75984 8.96403H9.55354H11.4908C11.7276 8.96403 12.0065 8.79297 12.0065 9.02974L11.9213 8.53353C11.9213 8.7703 11.7276 8.96403 11.4908 8.96403H7.75984C7.52307 8.96403 7.32934 8.7703 7.32934 8.53353V9.02974ZM17.6613 0.928101H1.5894C0.954414 0.928101 0.441406 1.44111 0.441406 2.07609V3.79807C0.441406 4.11377 0.699704 4.37207 1.0154 4.37207H18.2352C18.5509 4.37207 18.8092 4.11377 18.8092 3.79807V2.07609C18.8092 1.44111 18.2962 0.928101 17.6613 0.928101Z" fill="#EE0000"/>
<path d="M8.005 13.111L9.625 11.491L11.245 13.111L11.875 12.481L10.255 10.861L11.875 9.24096L11.245 8.61096L9.625 10.231L8.005 8.61096L7.375 9.24096L8.995 10.861L7.375 12.481L8.005 13.111ZM9.625 15.361C9.0025 15.361 8.4175 15.2428 7.87 15.0064C7.3225 14.7703 6.84625 14.4497 6.44125 14.0447C6.03625 13.6397 5.7157 13.1635 5.4796 12.616C5.2432 12.0685 5.125 11.4835 5.125 10.861C5.125 10.2385 5.2432 9.65346 5.4796 9.10596C5.7157 8.55846 6.03625 8.08221 6.44125 7.67721C6.84625 7.27221 7.3225 6.95151 7.87 6.71511C8.4175 6.47901 9.0025 6.36096 9.625 6.36096C10.2475 6.36096 10.8325 6.47901 11.38 6.71511C11.9275 6.95151 12.4038 7.27221 12.8088 7.67721C13.2138 8.08221 13.5343 8.55846 13.7704 9.10596C14.0068 9.65346 14.125 10.2385 14.125 10.861C14.125 11.4835 14.0068 12.0685 13.7704 12.616C13.5343 13.1635 13.2138 13.6397 12.8088 14.0447C12.4038 14.4497 11.9275 14.7703 11.38 15.0064C10.8325 15.2428 10.2475 15.361 9.625 15.361ZM9.625 14.461C10.63 14.461 11.4812 14.1122 12.1787 13.4147C12.8762 12.7172 13.225 11.866 13.225 10.861C13.225 9.85596 12.8762 9.00471 12.1787 8.30721C11.4812 7.60971 10.63 7.26096 9.625 7.26096C8.62 7.26096 7.76875 7.60971 7.07125 8.30721C6.37375 9.00471 6.025 9.85596 6.025 10.861C6.025 11.866 6.37375 12.7172 7.07125 13.4147C7.76875 14.1122 8.62 14.461 9.625 14.461Z" fill="white"/>
</svg>
