<svg width="28" height="21" viewBox="0 0 28 21" fill="none" xmlns="http://www.w3.org/2000/svg">
<circle cx="10.5" cy="10.5" r="9.75" fill="white" stroke="#FF21B3" stroke-width="1.5"/>
<rect x="12" y="6" width="12" height="10" fill="white"/>
<path d="M27.5303 11.5303C27.8232 11.2374 27.8232 10.7626 27.5303 10.4697L22.7574 5.6967C22.4645 5.40381 21.9896 5.40381 21.6967 5.6967C21.4038 5.98959 21.4038 6.46447 21.6967 6.75736L25.9393 11L21.6967 15.2426C21.4038 15.5355 21.4038 16.0104 21.6967 16.3033C21.9896 16.5962 22.4645 16.5962 22.7574 16.3033L27.5303 11.5303ZM11 11.75L19.1053 11.75V10.25L11 10.25V11.75ZM19.1053 11.75L27 11.75V10.25L19.1053 10.25V11.75Z" fill="#FF21B3"/>
</svg>
