<svg width="24" height="30" viewBox="0 0 24 30" fill="none" xmlns="http://www.w3.org/2000/svg">
<path d="M1.279 30V15.6L0.865203 15.1875C0.589341 14.8875 0.376176 14.55 0.225705 14.175C0.0752352 13.8 0 13.425 0 13.05C0 12.65 0.0752352 12.269 0.225705 11.907C0.376176 11.544 0.589341 11.225 0.865203 10.95L5.7931 6H11.8119L17.8307 0L20.9154 3.075C21.9686 4.1 22.7461 5.256 23.2476 6.543C23.7492 7.831 24 9.15 24 10.5C24 11.85 23.7492 13.1625 23.2476 14.4375C22.7461 15.7125 21.9686 16.875 20.9154 17.925L17.8307 21V30H1.279ZM4.2884 27H14.8213V19.7625L18.7712 15.825C19.4984 15.1 20.0502 14.2685 20.4263 13.3305C20.8025 12.3935 20.9906 11.45 20.9906 10.5C20.9906 9.55 20.8025 8.6125 20.4263 7.6875C20.0502 6.7625 19.4984 5.9375 18.7712 5.2125L17.8307 4.2375L13.0533 9H7.03448L6.16928 9.8625L8.68965 12.375C9.41693 13.1 9.96865 13.925 10.3448 14.85C10.721 15.775 10.9091 16.7125 10.9091 17.6625C10.9091 18.6125 10.721 19.5565 10.3448 20.4945C9.96865 21.4315 9.41693 22.2625 8.68965 22.9875L4.2884 18.6V27Z" fill="#D8428C"/>
</svg>
