<svg width="24" height="24" viewBox="0 0 19 17" fill="none" xmlns="http://www.w3.org/2000/svg">
<path d="M1.28373 15.852C1.28373 16.4869 1.79674 17 2.43172 17H16.2076C16.8426 17 17.3556 16.4869 17.3556 15.852V5.52006H1.28373V15.852ZM7.02368 9.02974C7.02368 8.79297 7.2174 8.96403 7.45418 8.96403H9.24788H11.1851C11.4219 8.96403 11.7008 8.79297 11.7008 9.02974L11.6156 8.53353C11.6156 8.7703 11.4219 8.96403 11.1851 8.96403H7.45418C7.2174 8.96403 7.02368 8.7703 7.02368 8.53353V9.02974ZM17.3556 0.928101H1.28373C0.64875 0.928101 0.135742 1.44111 0.135742 2.07609V3.79807C0.135742 4.11377 0.39404 4.37207 0.709737 4.37207H17.9296C18.2453 4.37207 18.5036 4.11377 18.5036 3.79807V2.07609C18.5036 1.44111 17.9906 0.928101 17.3556 0.928101Z" fill="#FFA500"/>
<path d="M9.31108 6.67829C8.10862 6.68045 7.01684 7.15429 6.2108 7.92459L5.56276 7.27655C5.28841 7.0022 4.81934 7.1965 4.81934 7.58448V10.017C4.81934 10.2575 5.01431 10.4525 5.25482 10.4525H7.68734C8.07532 10.4525 8.26962 9.98341 7.99528 9.70906L7.23772 8.9515C7.79776 8.42712 8.52242 8.13665 9.2923 8.13001C10.9689 8.11553 12.3821 9.47233 12.3676 11.2046C12.3539 12.8478 11.0216 14.2267 9.31934 14.2267C8.57308 14.2267 7.86778 13.9603 7.31194 13.4726C7.22587 13.3971 7.0959 13.4017 7.01494 13.4827L6.29526 14.2023C6.20686 14.2907 6.21123 14.4349 6.30401 14.5187C7.10196 15.2394 8.15939 15.6783 9.31934 15.6783C11.8046 15.6783 13.8193 13.6636 13.8193 11.1783C13.8194 8.6959 11.7935 6.67385 9.31108 6.67829Z" fill="white"/>
</svg>
