<svg width="24" height="24" viewBox="0 0 24 24" fill="none" xmlns="http://www.w3.org/2000/svg">
<path d="M4 8H7V4H21C22.1 4 23 4.9 23 6V17H21C21 18.66 19.66 20 18 20C16.34 20 15 18.66 15 17H9C9 18.66 7.66 20 6 20C4.34 20 3 18.66 3 17H1V12L4 8ZM18 18.5C18.83 18.5 19.5 17.83 19.5 17C19.5 16.17 18.83 15.5 18 15.5C17.17 15.5 16.5 16.17 16.5 17C16.5 17.83 17.17 18.5 18 18.5ZM4.5 9.5L2.54 12H7V9.5H4.5ZM6 18.5C6.83 18.5 7.5 17.83 7.5 17C7.5 16.17 6.83 15.5 6 15.5C5.17 15.5 4.5 16.17 4.5 17C4.5 17.83 5.17 18.5 6 18.5Z" fill="#008000"/>
</svg>
